<?xml version="1.0" encoding="UTF-8" standalone="no"?>
<!DOCTYPE svg PUBLIC "-//W3C//DTD SVG 1.1//EN" "http://www.w3.org/Graphics/SVG/1.1/DTD/svg11.dtd">
<svg version="1.1" xmlns="http://www.w3.org/2000/svg" xmlns:xlink="http://www.w3.org/1999/xlink" preserveAspectRatio="xMidYMid meet" viewBox="-1.0017105241566568 94.3888000000002 644.0017105241569 453.2288000000001" width="640" height="449.23"><defs><path d="M298.17 170.58C298.17 165.57 298.17 125.46 298.17 120.45C298.17 106.61 306.73 95.39 320.57 95.39C334.41 95.39 342.97 106.61 342.97 120.45C342.97 125.46 342.97 165.56 342.97 170.58C342.97 184.42 334.41 195.64 320.57 195.64C306.73 195.64 298.17 184.43 298.17 170.58Z" id="dGRhEoE6q"></path><path d="M179.87 217.33C177.43 213.42 157.97 182.17 155.53 178.27C148.22 166.52 151.8 151.06 163.55 143.74C175.3 136.42 190.76 140.01 198.08 151.76C200.51 155.67 219.98 186.91 222.41 190.82C229.73 202.57 226.14 218.03 214.39 225.35C210.27 227.92 205.69 229.14 201.16 229.14C192.8 229.14 184.62 224.96 179.87 217.33Z" id="a1GAj2kCM"></path><path d="M102.77 315.61C98.78 313.32 66.83 295.01 62.84 292.73C50.83 285.85 46.68 270.53 53.56 258.52C60.44 246.51 75.76 242.35 87.76 249.24C91.76 251.53 123.7 269.83 127.69 272.12C139.71 279 143.86 294.31 136.98 306.33C132.35 314.4 123.9 318.93 115.21 318.93C110.99 318.93 106.7 317.86 102.77 315.61Z" id="d3qY8sn5Pk"></path><path d="M82.46 440.99C76.69 440.93 30.54 440.44 24.77 440.38C10.92 440.21 -0.16 428.9 0 415.06C0.17 401.21 11.58 390.06 25.36 390.31C31.13 390.38 77.3 390.94 83.07 391.01C96.91 391.18 107.99 402.45 107.83 416.3C107.66 430.04 96.47 440.99 82.77 440.99C82.67 440.99 82.57 440.99 82.46 440.99Z" id="bAygZ8jjf"></path><path d="M532.17 416.3C532 402.46 543.1 390.88 556.93 390.71C562.7 390.62 608.86 389.88 614.63 389.79C614.74 389.79 614.84 389.79 614.94 389.79C628.64 389.79 639.83 401.08 640 414.83C640.16 428.67 629.07 440.08 615.24 440.25C609.47 440.32 563.3 440.91 557.53 440.99C557.43 440.99 557.33 440.99 557.23 440.99C543.52 440.99 532.34 430.04 532.17 416.3Z" id="a1Pu6E10qh"></path><path d="M503.02 307.39C496.14 295.38 500.29 280.06 512.31 273.18C516.3 270.9 548.24 252.59 552.24 250.3C564.24 243.42 579.56 247.58 586.44 259.58C593.32 271.6 589.17 286.91 577.16 293.79C573.17 296.08 541.22 314.38 537.23 316.67C533.3 318.93 529.02 320 524.79 320C516.1 320 507.65 315.48 503.02 307.39Z" id="b1jYyJ8LA"></path><path d="M425.61 225.35C413.86 218.03 410.27 202.57 417.59 190.82C420.02 186.91 439.49 155.67 441.92 151.76C449.24 140.01 464.7 136.42 476.45 143.74C488.2 151.06 491.79 166.52 484.47 178.27C482.03 182.17 462.57 213.42 460.13 217.33C455.38 224.96 447.2 229.14 438.84 229.14C434.31 229.14 429.73 227.92 425.61 225.35Z" id="b6qdDObSN"></path><path d="M143.12 412.5C143.12 426.34 154.34 437.56 168.18 437.56C182.02 437.56 193.24 426.34 193.24 412.5C193.24 378.45 206.96 344.37 230.89 319C255.16 293.25 286.81 279.07 320 279.07C353.19 279.07 384.84 293.25 409.12 319C433.04 344.38 446.76 378.45 446.76 412.5C446.76 426.35 457.98 437.56 471.83 437.56C485.67 437.56 496.89 426.35 496.89 412.5C496.88 313 415.88 228.94 320 228.94C224.12 228.94 143.12 313 143.12 412.5Z" id="k1HG7dq7F0"></path><path d="M336.41 351.57C331.81 346.98 325.72 344.86 319.7 345.1C319.49 345.09 319.28 345.04 319.07 345.04C318.98 345.04 318.89 345.01 318.8 345.01C318.79 345.01 318.78 345.02 318.76 345.02C317.31 345.02 315.85 345.17 314.41 345.46C313.76 345.59 313.15 345.84 312.52 346.03C311.76 346.25 310.98 346.43 310.23 346.74C309.5 347.04 308.83 347.46 308.14 347.84C307.55 348.16 306.94 348.42 306.37 348.8C305.15 349.62 304 350.55 302.96 351.59C295.45 359.09 235.43 419.12 227.93 426.63C219.18 435.38 219.18 449.56 227.93 458.31C232.31 462.68 238.04 464.87 243.77 464.87C249.5 464.87 255.24 462.68 259.61 458.31C262.06 455.85 274.33 443.59 296.4 421.51C296.4 481.93 296.4 515.5 296.4 522.22C296.4 534.59 306.43 544.62 318.8 544.62C331.17 544.62 341.2 534.59 341.2 522.22C341.2 515.39 341.2 481.22 341.2 419.73C364.34 442.87 377.19 455.73 379.76 458.3C384.14 462.68 389.87 464.86 395.6 464.86C401.34 464.86 407.07 462.67 411.44 458.3C420.19 449.56 420.19 435.38 411.44 426.63C396.44 411.62 343.91 359.08 336.41 351.57Z" id="a4dKqwhz5d"></path></defs><g><g><use xlink:href="#dGRhEoE6q" opacity="1" fill="#ffffff" fill-opacity="0.6"></use></g><g><use xlink:href="#a1GAj2kCM" opacity="1" fill="#ffffff" fill-opacity="0.6"></use></g><g><use xlink:href="#d3qY8sn5Pk" opacity="1" fill="#ffffff" fill-opacity="0.6"></use></g><g><use xlink:href="#bAygZ8jjf" opacity="1" fill="#ffffff" fill-opacity="0.6"></use></g><g><use xlink:href="#a1Pu6E10qh" opacity="1" fill="#ffffff" fill-opacity="0.6"></use></g><g><use xlink:href="#b1jYyJ8LA" opacity="1" fill="#ffffff" fill-opacity="0.6"></use></g><g><use xlink:href="#b6qdDObSN" opacity="1" fill="#ffffff" fill-opacity="0.6"></use></g><g><use xlink:href="#k1HG7dq7F0" opacity="1" fill="#ffffff" fill-opacity="0.6"></use></g><g><use xlink:href="#a4dKqwhz5d" opacity="1" fill="#ffffff" fill-opacity="1"></use></g></g></svg>