<?xml version="1.0" encoding="UTF-8" standalone="no"?>
<!DOCTYPE svg PUBLIC "-//W3C//DTD SVG 1.1//EN" "http://www.w3.org/Graphics/SVG/1.1/DTD/svg11.dtd">
<svg version="1.1" xmlns="http://www.w3.org/2000/svg" xmlns:xlink="http://www.w3.org/1999/xlink" preserveAspectRatio="xMidYMid meet" viewBox="-1.0017105241567705 94.38879999999997 644.0035586592056 453.2224000000002" width="640" height="449.22"><defs><path d="M298.17 170.58C298.17 165.57 298.17 125.46 298.17 120.45C298.17 106.61 306.73 95.39 320.57 95.39C334.41 95.39 342.97 106.61 342.97 120.45C342.97 125.46 342.97 165.56 342.97 170.58C342.97 184.42 334.41 195.64 320.57 195.64C306.73 195.64 298.17 184.43 298.17 170.58Z" id="h2z6XPPxB8"></path><path d="M179.87 217.33C177.43 213.42 157.97 182.17 155.53 178.27C148.22 166.52 151.8 151.06 163.55 143.74C175.3 136.42 190.76 140.01 198.08 151.76C200.51 155.67 219.98 186.91 222.41 190.82C229.73 202.57 226.14 218.03 214.39 225.35C210.27 227.92 205.69 229.14 201.16 229.14C192.8 229.14 184.62 224.96 179.87 217.33Z" id="bZ1yfbjQl"></path><path d="M102.77 315.61C98.78 313.32 66.83 295.01 62.84 292.73C50.83 285.85 46.68 270.53 53.56 258.52C60.44 246.51 75.76 242.35 87.76 249.24C91.76 251.53 123.7 269.83 127.69 272.12C139.71 279 143.86 294.31 136.98 306.33C132.35 314.4 123.9 318.93 115.21 318.93C110.99 318.93 106.7 317.86 102.77 315.61Z" id="a2P4cVbakB"></path><path d="M82.46 440.99C76.69 440.93 30.54 440.44 24.77 440.38C10.92 440.21 -0.16 428.9 0 415.06C0.17 401.21 11.58 390.06 25.36 390.31C31.13 390.38 77.3 390.94 83.07 391.01C96.91 391.18 107.99 402.45 107.83 416.3C107.66 430.04 96.47 440.99 82.77 440.99C82.67 440.99 82.57 440.99 82.46 440.99Z" id="b2k7djRf8g"></path><path d="M532.17 416.3C532.01 402.46 543.1 390.88 556.93 390.71C562.7 390.62 608.87 389.88 614.64 389.79C614.74 389.79 614.84 389.79 614.94 389.79C628.65 389.79 639.83 401.08 640 414.83C640.17 428.67 629.08 440.08 615.24 440.25C609.47 440.32 563.31 440.91 557.54 440.99C557.43 440.99 557.33 440.99 557.23 440.99C543.53 440.99 532.34 430.04 532.17 416.3Z" id="e2Ctu2nG6G"></path><path d="M503.02 306.32C496.14 294.31 500.29 278.99 512.31 272.11C516.3 269.82 548.24 251.52 552.24 249.23C564.24 242.35 579.56 246.51 586.44 258.51C593.32 270.52 589.17 285.84 577.16 292.72C573.17 295.01 541.22 313.31 537.23 315.6C533.3 317.86 529.02 318.93 524.79 318.93C516.1 318.93 507.65 314.4 503.02 306.32Z" id="b55JLpfT3"></path><path d="M425.61 225.35C413.86 218.03 410.27 202.57 417.59 190.82C420.02 186.91 439.49 155.67 441.92 151.76C449.24 140.01 464.7 136.42 476.45 143.74C488.2 151.06 491.79 166.52 484.47 178.27C482.03 182.17 462.57 213.42 460.13 217.33C455.38 224.96 447.2 229.14 438.84 229.14C434.31 229.14 429.73 227.92 425.61 225.35Z" id="a95zLvR0vK"></path><path d="M143.12 412.5C143.12 426.34 154.34 437.56 168.18 437.56C182.02 437.56 193.24 426.34 193.24 412.5C193.24 378.45 206.96 344.37 230.89 319C255.16 293.25 286.81 279.07 320 279.07C353.19 279.07 384.84 293.25 409.12 319C433.04 344.38 446.76 378.45 446.76 412.5C446.76 426.35 457.98 437.56 471.83 437.56C485.67 437.56 496.89 426.35 496.89 412.5C496.88 313 415.88 228.94 320 228.94C224.12 228.94 143.12 313 143.12 412.5Z" id="a11XBS9H3c"></path><path d="M302.96 538.05C307.56 542.65 313.65 544.76 319.67 544.53C319.88 544.53 320.09 544.59 320.3 544.59C320.39 544.59 320.48 544.61 320.57 544.61C320.58 544.61 320.6 544.6 320.61 544.6C322.07 544.6 323.53 544.45 324.96 544.16C325.61 544.04 326.22 543.79 326.85 543.6C327.62 543.38 328.4 543.2 329.14 542.89C329.88 542.58 330.54 542.17 331.23 541.79C331.82 541.47 332.43 541.21 333 540.83C334.23 540.01 335.37 539.08 336.42 538.04C343.92 530.53 403.94 470.5 411.44 462.99C420.19 454.24 420.19 440.06 411.44 431.31C407.07 426.94 401.34 424.75 395.6 424.75C389.87 424.75 384.13 426.94 379.76 431.31C377.31 433.77 365.05 446.03 342.97 468.11C342.97 407.69 342.97 374.13 342.97 367.41C342.97 355.04 332.94 345.01 320.57 345.01C308.2 345.01 298.17 355.04 298.17 367.41C298.17 374.25 298.17 408.41 298.17 469.9C275.03 446.76 262.18 433.9 259.61 431.33C255.23 426.95 249.5 424.77 243.77 424.77C238.04 424.77 232.31 426.96 227.93 431.33C219.18 440.07 219.18 454.25 227.93 463C242.94 478.01 295.46 530.55 302.96 538.05Z" id="eLGW9lBC3"></path></defs><g><g><use xlink:href="#h2z6XPPxB8" opacity="1" fill="#ffffff" fill-opacity="0.6"></use></g><g><use xlink:href="#bZ1yfbjQl" opacity="1" fill="#ffffff" fill-opacity="0.6"></use></g><g><use xlink:href="#a2P4cVbakB" opacity="1" fill="#ffffff" fill-opacity="0.6"></use></g><g><use xlink:href="#b2k7djRf8g" opacity="1" fill="#ffffff" fill-opacity="0.6"></use></g><g><use xlink:href="#e2Ctu2nG6G" opacity="1" fill="#ffffff" fill-opacity="0.6"></use></g><g><use xlink:href="#b55JLpfT3" opacity="1" fill="#ffffff" fill-opacity="0.6"></use></g><g><use xlink:href="#a95zLvR0vK" opacity="1" fill="#ffffff" fill-opacity="0.6"></use></g><g><use xlink:href="#a11XBS9H3c" opacity="1" fill="#ffffff" fill-opacity="0.6"></use></g><g><use xlink:href="#eLGW9lBC3" opacity="1" fill="#ffffff" fill-opacity="1"></use></g></g></svg>